<svg version="1.2" xmlns="http://www.w3.org/2000/svg" viewBox="0 0 33 33" width="33" height="33">
	<title>facebook-svg</title>
	<defs>
		<clipPath clipPathUnits="userSpaceOnUse" id="cp1">
			<path d="m0 0h33v33h-33z"/>
		</clipPath>
	</defs>
	<style>
		.s0 { fill: none;stroke: #727273;stroke-width: 1.7 } 
		.s1 { fill: #727273 } 
	</style>
	<g id="Clip-Path" clip-path="url(#cp1)">
		<g id="Layer">
			<path id="Layer" class="s0" d="m16.5 32.2c-8.7 0-15.7-7-15.7-15.7 0-8.7 7-15.7 15.7-15.7 8.7 0 15.7 7 15.7 15.7 0 8.7-7 15.7-15.7 15.7z"/>
			<path id="Layer" class="s1" d="m18.2 14.2v-3.3c0-0.9 0.7-1.7 1.6-1.7h1.6v-4.1h-3.2c-2.7 0-4.9 2.2-4.9 5v4.1h-3.2v4.1h3.2v13.3h4.9v-13.3h3.2l1.6-4.1z"/>
		</g>
	</g>
</svg>