<svg version="1.2" xmlns="http://www.w3.org/2000/svg" viewBox="0 0 33 33" width="33" height="33">
	<title>insta-svg</title>
	<defs>
		<clipPath clipPathUnits="userSpaceOnUse" id="cp1">
			<path d="m0 0h33v33h-33z"/>
		</clipPath>
	</defs>
	<style>
		.s0 { fill: #727273 } 
		.s1 { fill: none;stroke: #727273;stroke-width: 1.7 } 
	</style>
	<g id="Clip-Path" clip-path="url(#cp1)">
		<g id="Layer">
			<g id="Layer">
				<path id="Layer" fill-rule="evenodd" class="s0" d="m6 12c0-3.3 2.7-6 6-6h8.2c3.4 0 6 2.7 6 6v8.3c0 3.3-2.6 6-6 6h-8.2c-3.3 0-6-2.7-6-6zm2 8.2c0 2.2 1.8 4 4 4h8.2c2.2 0 4-1.8 4-4v-8.2c0-2.2-1.8-4-4-4h-8.2c-2.2 0-4 1.8-4 4z"/>
				<path id="Layer" fill-rule="evenodd" class="s0" d="m16.1 21.4c-2.9 0-5.2-2.4-5.2-5.3 0-2.9 2.3-5.2 5.2-5.2 2.9 0 5.3 2.3 5.3 5.2 0 2.9-2.4 5.3-5.3 5.3zm3.2-5.3c0-1.7-1.4-3.2-3.2-3.2-1.7 0-3.2 1.5-3.2 3.2 0 1.8 1.5 3.2 3.2 3.2 1.8 0 3.2-1.4 3.2-3.2z"/>
				<path id="Layer" class="s0" d="m21.4 12.2c-0.7 0-1.3-0.6-1.3-1.3 0-0.7 0.6-1.2 1.3-1.2 0.7 0 1.2 0.5 1.2 1.2 0 0.7-0.5 1.3-1.2 1.3z"/>
			</g>
			<path id="Layer" class="s1" d="m16.5 32.2c-8.7 0-15.7-7-15.7-15.7 0-8.7 7-15.7 15.7-15.7 8.7 0 15.7 7 15.7 15.7 0 8.7-7 15.7-15.7 15.7z"/>
		</g>
	</g>
</svg>