<svg version="1.2" xmlns="http://www.w3.org/2000/svg" viewBox="0 0 33 33" width="33" height="33">
	<title>twitter-svg</title>
	<defs>
		<clipPath clipPathUnits="userSpaceOnUse" id="cp1">
			<path d="m0 0h33v33h-33z"/>
		</clipPath>
	</defs>
	<style>
		.s0 { fill: none;stroke: #727273;stroke-width: 1.7 } 
		.s1 { fill: #727273 } 
	</style>
	<g id="Clip-Path" clip-path="url(#cp1)">
		<g id="Layer">
			<path id="Layer" class="s0" d="m16.5 32.2c-8.7 0-15.7-7-15.7-15.7 0-8.7 7-15.7 15.7-15.7 8.7 0 15.7 7 15.7 15.7 0 8.7-7 15.7-15.7 15.7z"/>
			<path id="Layer" class="s1" d="m29 10.6q-1.3 0.5-2.7 0.7c1-0.6 1.7-1.5 2.1-2.5q-1.4 0.7-3 1.1c-0.9-0.9-2.1-1.5-3.5-1.5-2.5 0-4.6 2.1-4.6 4.6q0 0.5 0.1 1c-3.9-0.2-7.4-2-9.7-4.8-0.4 0.7-0.6 1.5-0.6 2.4 0 1.5 0.8 2.9 2 3.8-0.7-0.1-1.5-0.3-2.1-0.6q0 0 0 0c0 2.3 1.6 4.1 3.8 4.5q-0.6 0.2-1.3 0.2-0.4 0-0.8-0.1c0.6 1.8 2.3 3.2 4.3 3.2-1.6 1.2-3.6 2-5.8 2q-0.5 0-1.1-0.1c2.1 1.3 4.5 2 7.2 2 8.6 0 13.4-6.9 13.4-13q0-0.3-0.1-0.6 1.4-0.9 2.4-2.3z"/>
		</g>
	</g>
</svg>