<svg version="1.2" xmlns="http://www.w3.org/2000/svg" viewBox="0 0 33 33" width="33" height="33">
	<title>youtube-svg</title>
	<defs>
		<clipPath clipPathUnits="userSpaceOnUse" id="cp1">
			<path d="m0 0h33v33h-33z"/>
		</clipPath>
	</defs>
	<style>
		.s0 { fill: #727273 } 
		.s1 { fill: none;stroke: #727273;stroke-width: 1.7 } 
	</style>
	<g id="Clip-Path" clip-path="url(#cp1)">
		<g id="Layer">
			<path id="Layer" fill-rule="evenodd" class="s0" d="m27.7 13.4v6.2c0 2.4-2.1 4.3-4.6 4.3h-13c-2.6 0-4.7-1.9-4.7-4.3v-6.2c0-2.4 2.1-4.3 4.7-4.3h13c2.5 0 4.6 1.9 4.6 4.3zm-7.7 3l-6.1-2.9c-0.2-0.1-0.4 0-0.4 0.2v5.6c0 0.2 0.2 0.3 0.4 0.2l6.1-2.7c0.1-0.1 0.2-0.3 0-0.4z"/>
			<path id="Layer" class="s1" d="m16.5 32.2c-8.7 0-15.7-7-15.7-15.7 0-8.7 7-15.7 15.7-15.7 8.7 0 15.7 7 15.7 15.7 0 8.7-7 15.7-15.7 15.7z"/>
		</g>
	</g>
</svg>